#!OML:ASF H:\ManfredETheater\Project 1\Capture day 1\Session 1\subject.ASF
:FULLY-SPECIFIED
:DEGREES
395
root 1.17739 16.0456 -35.5548 -158.846 -4.23252 -186.569
lowerback 18.8417 -3.4288 -3.86869
upperback 0.781015 -5.4876 1.0498
thorax -9.23141 -2.52124 4.78302
lowerneck -21.5227 -1.21843 -2.06618
upperneck 6.12534 -1.11599 2.40344
head 5.29507 -0.314356 0.98914
rclavicle -2.57426e-014 -8.94531e-015
rhumerus -67.375 -4.77952 -79.2931
rradius 65.3095
rwrist -17.1531
rhand -29.1423 2.59223
rfingers 7.12502
rthumb -2.48913 -27.373
lclavicle -2.57426e-014 -8.94531e-015
lhumerus -24.2092 -7.11865 90.3187
lradius 108.44
lwrist 21.5519
lhand -23.613 1.81993
lfingers 7.12502
lthumb 2.85111 31.7806
rfemur -76.0242 -14.6075 22.8391
rtibia 89.4765
rfoot -16.9416 -5.3937
rtoes -41.5001
lfemur -6.52162 -5.41617 -25.892
ltibia 39.5522
lfoot -31.6231 -11.3863
ltoes -7.60953
396
root 1.19144 16.0329 -35.8174 -158.553 -4.57191 -186.555
lowerback 18.8419 -3.61873 -3.61477
upperback 0.733449 -5.66434 1.21337
thorax -9.27276 -2.60819 4.8646
lowerneck -21.5389 -1.15935 -2.12908
upperneck 6.00432 -0.995898 2.27363
head 5.25542 -0.265192 0.970267
rclavicle -8.87574e-014 8.74653e-015
rhumerus -70.0805 -3.9021 -79.2796
rradius 67.9613
rwrist -17.6228
rhand -28.7223 3.43567
rfingers 7.12502
rthumb -2.08353 -26.5339
lclavicle -8.87574e-014 8.74653e-015
lhumerus -23.3817 -7.38624 90.1436
lradius 112.271
lwrist 21.8329
lhand -23.5825 1.05043
lfingers 7.12502
lthumb 2.8806 31.0107
rfemur -77.0824 -14.5866 23.2009
rtibia 88.5352
rfoot -16.6358 -4.97783
rtoes -42.141
lfemur -5.05839 -5.9066 -25.6722
ltibia 37.7283
lfoot -30.7041 -11.4733
ltoes -8.39268
397
root 1.20753 16.026 -36.089 -158.256 -4.88641 -186.504
lowerback 18.8118 -3.82188 -3.3495
upperback 0.686207 -5.85382 1.39418
thorax -9.29539 -2.70246 4.95907
lowerneck -21.5316 -1.05706 -2.14639
upperneck 5.8596 -0.823415 2.08217
head 5.20308 -0.19383 0.929827
rclavicle -2.40529e-014 1.43125e-014
rhumerus -72.6573 -3.00368 -79.3633
rradius 70.6147
rwrist -18.2252
rhand -28.1856 4.25387
rfingers 7.12502
rthumb -1.56513 -25.7201
lclavicle -2.40529e-014 1.43125e-014
lhumerus -22.6952 -7.65386 89.8381
lradius 116.036
lwrist 21.8264
lhand -23.5148 0.139477
lfingers 7.12502
lthumb 2.94596 30.0989
rfemur -77.9063 -14.4931 23.5339
rtibia 87.5841
rfoot -16.2594 -4.57128
rtoes -42.871
lfemur -3.62766 -6.41543 -25.4116
ltibia 35.9425
lfoot -29.4998 -11.6028
ltoes -9.38881
398
root 1.22559 16.0251 -36.3692 -157.936 -5.15808 -186.418
lowerback 18.7326 -4.03119 -3.07674
upperback 0.634642 -6.04762 1.58477
thorax -9.29513 -2.79998 5.05648
lowerneck -21.5095 -0.920234 -2.12999
upperneck 5.70037 -0.609676 1.84963
head 5.14311 -0.104236 0.875065
rclavicle -7.83212e-014 2.20651e-014
rhumerus -75.0525 -2.14323 -79.5012
rradius 73.1559
rwrist -18.8037
rhand -27.5831 5.07526
rfingers 7.12502
rthumb -0.983249 -24.9022
lclavicle -7.83212e-014 2.20651e-014
lhumerus -22.1733 -7.92009 89.3992
lradius 119.687
lwrist 21.5592
lhand -23.3927 -0.93414
lfingers 7.12502
lthumb 3.06389 29.0236
rfemur -78.5159 -14.319 23.8454
rtibia 86.6562
rfoot -15.7649 -4.20466
rtoes -43.6029
lfemur -2.29274 -6.93813 -25.1181
ltibia 34.2593
lfoot -27.978 -11.7781
ltoes -10.5987
399
root 1.24465 16.031 -36.6579 -157.595 -5.36895 -186.322
lowerback 18.6136 -4.23631 -2.81177
upperback 0.581251 -6.2379 1.76977
thorax -9.27545 -2.89669 5.14712
lowerneck -21.4734 -0.764817 -2.10021
upperneck 5.5251 -0.372857 1.59694
head 5.07608 -0.00394066 0.813962
rclavicle -6.16232e-015 8.15017e-015
rhumerus -77.2217 -1.37593 -79.6464
rradius 75.4968
rwrist -19.1943
rhand -26.9934 5.90476
rfingers 7.12502
rthumb -0.413724 -24.0746
lclavicle -6.16232e-015 8.15017e-015
lhumerus -21.8178 -8.19446 88.842
lradius 123.162
lwrist 21.0809
lhand -23.1932 -2.11762
lfingers 7.12502
lthumb 3.25651 27.8373
rfemur -78.902 -14.0854 24.1135
rtibia 85.7833
rfoot -15.1145 -3.8869
rtoes -44.2195
lfemur -1.08132 -7.46935 -24.8324
ltibia 32.7347
lfoot -26.1058 -12.0048
ltoes -11.9616
400
root 1.2643 16.0437 -36.9554 -157.229 -5.49661 -186.215
lowerback 18.4526 -4.41953 -2.55194
upperback 0.527104 -6.40168 1.94136
thorax -9.23726 -2.98183 5.21471
lowerneck -21.4281 -0.608232 -2.07151
upperneck 5.33035 -0.133277 1.33721
head 5.00225 0.0981433 0.750882
rclavicle 2.68359e-014 -1.39149e-015
rhumerus -79.1271 -0.757802 -79.7505
rradius 77.5707
rwrist -19.274
rhand -26.4505 6.73879
rfingers 7.12502
rthumb 0.110637 -23.2409
lclavicle 2.68359e-014 -1.39149e-015
lhumerus -21.6344 -8.50368 88.2083
lradius 126.408
lwrist 20.4583
lhand -22.9321 -3.34309
lfingers 7.12502
lthumb 3.5087 26.6078
rfemur -79.064 -13.7857 24.3502
rtibia 84.9857
rfoot -14.2967 -3.6467
rtoes -44.6521
lfemur -0.0285859 -7.99433 -24.5639
ltibia 31.4143
lfoot -23.8618 -12.2684
ltoes -13.3966
401
root 1.28409 16.0627 -37.2612 -156.831 -5.5198 -186.117
lowerback 18.2533 -4.56553 -2.31833
upperback 0.465929 -6.52369 2.09008
thorax -9.18984 -3.04656 5.25775
lowerneck -21.3643 -0.463622 -2.05478
upperneck 5.10885 0.0937632 1.07548
head 4.9182 0.194864 0.68756
rclavicle -5.76476e-014 9.93923e-016
rhumerus -80.7412 -0.324445 -79.7746
rradius 79.3344
rwrist -19.0149
rhand -25.9856 7.5377
rfingers 7.12502
rthumb 0.559652 -22.4413
lclavicle -5.76476e-014 9.93923e-016
lhumerus -21.6417 -8.87037 87.5492
lradius 129.369
lwrist 19.7726
lhand -22.5876 -4.49158
lfingers 7.12502
lthumb 3.84136 25.4535
rfemur -79.0072 -13.4252 24.5455
rtibia 84.2764
rfoot -13.2992 -3.4907
rtoes -44.8473
lfemur 0.831129 -8.50318 -24.3441
ltibia 30.3226
lfoot -21.2288 -12.5263
ltoes -14.9159
402
root 1.30328 16.087 -37.5747 -156.408 -5.42174 -186.049
lowerback 18.0343 -4.66066 -2.13415
upperback 0.400429 -6.5919 2.20707
thorax -9.13986 -3.08402 5.27862
lowerneck -21.2941 -0.343559 -2.06355
upperneck 4.86158 0.294881 0.820333
head 4.82622 0.280432 0.627583
rclavicle 7.84206e-014 7.15625e-015
rhumerus -82.0325 -0.0984316 -79.6871
rradius 80.7865
rwrist -18.4728
rhand -25.6509 8.31995
rfingers 7.12502
rthumb 0.88291 -21.658
lclavicle 7.84206e-014 7.15625e-015
lhumerus -21.8369 -9.32028 86.9163
lradius 131.967
lwrist 19.0785
lhand -22.1471 -5.49326
lfingers 7.12502
lthumb 4.26673 24.4438
rfemur -78.721 -13.0203 24.6827
rtibia 83.6585
rfoot -12.1805 -3.38948
rtoes -44.7014
lfemur 1.48256 -8.98687 -24.2104
ltibia 29.4726
lfoot -18.1971 -12.7457
ltoes -16.4485
403
root 1.32132 16.1151 -37.8953 -155.976 -5.20319 -186.014
lowerback 17.8202 -4.69764 -1.99648
upperback 0.331903 -6.59643 2.28948
thorax -9.10093 -3.08907 5.27333
lowerneck -21.2249 -0.255969 -2.10487
upperneck 4.5932 0.460968 0.577836
head 4.72882 0.350871 0.57318
rclavicle -1.41435e-013 2.56432e-014
rhumerus -82.984 -0.0874767 -79.4802
rradius 81.9359
rwrist -17.7706
rhand -25.4335 8.98589
rfingers 7.12502
rthumb 1.0929 -20.9911
lclavicle -1.41435e-013 2.56432e-014
lhumerus -22.2392 -9.88052 86.3684
lradius 134.135
lwrist 18.4269
lhand -21.6113 -6.28972
lfingers 7.12502
lthumb 4.78412 23.6363
rfemur -78.1828 -12.5888 24.772
rtibia 83.1207
rfoot -11.1067 -3.29683
rtoes -44.1674
lfemur 1.91739 -9.44543 -24.1702
ltibia 28.8703
lfoot -14.7739 -12.9176
ltoes -17.8546
